<svg version="1.1" baseProfile="full" xmlns="http://www.w3.org/2000/svg" xmlns:xlink="http://www.w3.org/1999/xlink" xmlns:ev="http://www.w3.org/2001/xml-events">
<g fill-opacity=".5">
	<polygon points="9.207,7.126 7.793,8.541 11.793,12.541 13.207,11.126" />
	<path d="M5.917,3c1.608,0,2.917,1.308,2.917,2.917S7.525,8.833,5.917,8.833S3,7.525,3,5.917S4.308,3,5.917,3 M5.917,1
		C3.201,1,1,3.201,1,5.917s2.201,4.917,4.917,4.917s4.917-2.201,4.917-4.917C10.833,3.201,8.632,1,5.917,1L5.917,1z" />
</g>
<g>
	<polygon fill="#fff" points="9.207,6.126 7.793,7.541 11.793,11.541 13.207,10.126" />
	<path fill="#fff" d="M5.917,2c1.608,0,2.917,1.308,2.917,2.917S7.525,7.833,5.917,7.833S3,6.525,3,4.917S4.308,2,5.917,2
		 M5.917,0C3.201,0,1,2.201,1,4.917s2.201,4.917,4.917,4.917s4.917-2.201,4.917-4.917C10.833,2.201,8.632,0,5.917,0L5.917,0z" />
</g>
</svg>
